<svg version="1.1" id="Слой_1" xmlns="http://www.w3.org/2000/svg" xmlns:xlink="http://www.w3.org/1999/xlink" x="0px" y="0px"
	 viewBox="0 0 438 40" style="enable-background:new 0 0 438 40;" xml:space="preserve">
<style type="text/css">
	.st0{fill:#FFFFFF;}
	.st1{fill:#11a87a;}
	.st2{fill:#5C5B5D;}
</style>
<g>
	<path class="st0" d="M312.2,10.2h-13.7v2.5h5.3v13.6h3V12.8h5.4V10.2L312.2,10.2z M328.4,23.9v-4.5h7.8v-2.5h-7.8v-4.2h8.8v-2.5
		h-11.8v16.2h12.1v-2.5H328.4L328.4,23.9z M351.5,10.2v16.2h3V12.8h8.4v13.6h3V10.2H351.5L351.5,10.2z M382.7,10.2l-0.2,6.7
		c-0.2,4.6-0.8,7-2.7,7c-0.3,0-0.5,0-0.7-0.1l-0.2,2.6c0.6,0.1,1.1,0.2,1.6,0.2c3.5,0,4.4-3.4,4.6-9.8l0.1-4h6.4v13.6h3V10.2H382.7
		L382.7,10.2z M417.3,26.6c5,0,8.7-3.5,8.7-8.3s-3.7-8.3-8.7-8.3c-5,0-8.7,3.5-8.7,8.3S412.3,26.6,417.3,26.6L417.3,26.6z M417.3,24
		c-3.3,0-5.7-2.4-5.7-5.7s2.4-5.7,5.7-5.7c3.3,0,5.7,2.4,5.7,5.7S420.5,24,417.3,24L417.3,24z"/>
	<path class="st1" d="M266.4,24.8l-2-1.9c0.7-1,1.2-2.3,1.5-3.7l-2.3-0.8c-0.2,1-0.5,2-0.9,2.7l-3.5-3.3c2.3-1.3,3.3-2.5,3.3-4.2
		c0-2.2-1.7-3.6-4.3-3.6c-2.8,0-4.7,1.5-4.7,3.8c0,1.2,0.5,2.2,1.8,3.6c-2.6,1.5-3.7,2.9-3.7,4.9c0,2.5,2.5,4.3,5.9,4.3
		c2.1,0,4-0.7,5.4-1.9l2,2L266.4,24.8L266.4,24.8z M258.1,12.1c1.2,0,1.9,0.6,1.9,1.5c0,0.9-0.6,1.5-2.5,2.6
		c-1.2-1.2-1.5-1.7-1.5-2.4C256,12.8,256.8,12.1,258.1,12.1L258.1,12.1z M257.6,24.3c-2,0-3.3-0.9-3.3-2.3c0-1.2,0.6-2,2.5-3
		l4.3,4.1C260.1,23.8,258.9,24.3,257.6,24.3L257.6,24.3z"/>
	<path class="st0" d="M14,26.4h3V10.2h-3V26.4L14,26.4z M45.7,23.8V10.2H33.8l-0.2,5.1c-0.2,4.7-0.7,8.4-2.9,8.5h-0.7l0,6h2.8v-3.4
		h12.4v3.4H48v-6H45.7L45.7,23.8z M36.3,15.6l0.1-2.9h6.3v11.1h-8.2C35.8,22.5,36.1,19.3,36.3,15.6L36.3,15.6z M64.4,23.9v-4.5h7.8
		v-2.5h-7.8v-4.2h8.8v-2.5H61.4v16.2h12.1v-2.5H64.4L64.4,23.9z M99.9,26.4h3.1l-7.3-16.2h-3l-7.3,16.2h3.1l1.6-3.7h8.1L99.9,26.4
		L99.9,26.4z M91.2,20.3l3-7.1l3,7.1H91.2L91.2,20.3z M118.1,10.2l-0.2,6.7c-0.2,4.6-0.8,7-2.7,7c-0.3,0-0.5,0-0.7-0.1l-0.2,2.6
		c0.6,0.1,1.1,0.2,1.6,0.2c3.5,0,4.4-3.4,4.6-9.8l0.1-4h6.4v13.6h3V10.2H118.1L118.1,10.2z M152.7,15.7h-4.5v-5.5h-3v16.2h7
		c4.1,0,6.5-1.9,6.5-5.5C158.7,17.4,156.5,15.7,152.7,15.7L152.7,15.7z M152.1,24.1h-3.9V18h3.9c2.3,0,3.6,0.9,3.6,2.9
		C155.7,23,154.4,24.1,152.1,24.1L152.1,24.1z M183.8,10.2v6.7h-8.4v-6.7h-3v16.2h3v-6.9h8.4v6.9h3V10.2H183.8L183.8,10.2z
		M209.4,26.6c5,0,8.7-3.5,8.7-8.3s-3.7-8.3-8.7-8.3c-5,0-8.7,3.5-8.7,8.3S204.4,26.6,209.4,26.6L209.4,26.6z M209.4,24
		c-3.3,0-5.7-2.4-5.7-5.7s2.4-5.7,5.7-5.7c3.3,0,5.7,2.4,5.7,5.7S212.7,24,209.4,24L209.4,24z"/>
</g>
</svg>
