<svg xmlns="http://www.w3.org/2000/svg" xmlns:xlink="http://www.w3.org/1999/xlink" width="908" height="801" viewBox="0 0 908 801">
  <defs>
    <filter id="Rectangle_472" x="0" y="0" width="908" height="801" filterUnits="userSpaceOnUse">
      <feOffset dy="3" input="SourceAlpha"/>
      <feGaussianBlur stdDeviation="17.5" result="blur"/>
      <feFlood flood-opacity="0.659"/>
      <feComposite operator="in" in2="blur"/>
      <feComposite in="SourceGraphic"/>
    </filter>
    <linearGradient id="linear-gradient" x1="0.5" x2="0.5" y2="1" gradientUnits="objectBoundingBox">
      <stop offset="0" stop-color="#11a87a"/>
      <stop offset="1" stop-color="#054e38"/>
    </linearGradient>
    <linearGradient id="linear-gradient-2" x1="0.5" x2="0.5" y2="1" gradientUnits="objectBoundingBox">
      <stop offset="0" stop-color="#fff" stop-opacity="0.31"/>
      <stop offset="1" stop-opacity="0"/>
    </linearGradient>
  </defs>
  <g id="Group_301" data-name="Group 301" transform="translate(-434.5 -49.5)">
    <g transform="matrix(1, 0, 0, 1, 434.5, 49.5)" filter="url(#Rectangle_472)">
      <g id="Rectangle_472-2" data-name="Rectangle 472" transform="translate(52.5 49.5)" fill="#fff" stroke="#bbb" stroke-width="1">
        <rect width="803" height="696" stroke="none"/>
        <rect x="0.5" y="0.5" width="802" height="695" fill="none"/>
      </g>
    </g>
    <text id="Ми_хотіли_б_почути_і_допомогти_вам_з_будь-яким_конкретним_питанням_яке_у_вас_може_бути._Зв_яжіться_з_нами_і_давайте_робити_затишок_разом_" data-name="Ми хотіли б почути і допомогти вам з будь-яким
конкретним питанням, яке у вас може бути.
Зв&apos;яжіться з нами і давайте робити затишок разом!" transform="translate(551 352)" fill="#535659" font-size="25" font-family="Montserrat-Regular, Montserrat"><tspan x="0" y="0">Ми хотіли б почути і допомогти вам з будь-яким</tspan><tspan x="0" y="40">конкретним питанням, яке у вас може бути.</tspan><tspan x="0" y="80">Зв&apos;яжіться з нами і давайте робити затишок разом!</tspan></text>
    <g id="Group_292" data-name="Group 292" transform="translate(736.48 332)">
      <g id="Group_241" data-name="Group 241" transform="translate(33 367)">
        <g id="Rectangle_213" data-name="Rectangle 213" transform="translate(-0.48)" stroke="#82a596" stroke-width="1" fill="url(#linear-gradient)">
          <rect width="239" height="39" rx="19.5" stroke="none"/>
          <rect x="0.5" y="0.5" width="238" height="38" rx="19" fill="none"/>
        </g>
        <rect id="Rectangle_214" data-name="Rectangle 214" width="231" height="32" rx="16" transform="translate(3.52 3)" fill="url(#linear-gradient-2)"/>
      </g>
      <text id="Відправити" transform="translate(93.52 393)" fill="#fff" font-size="19" font-family="Montserrat-Medium, Montserrat" font-weight="500"><tspan x="0" y="0">Відправити</tspan></text>
    </g>
    <g id="Group_293" data-name="Group 293" transform="translate(558 155)">
      <path id="Union_1" data-name="Union 1" d="M-6528.9,15548H-6761v-2h232.1a5,5,0,0,1,4.9-4,5,5,0,0,1,5,5,5,5,0,0,1-5,5A5,5,0,0,1-6528.9,15548Z" transform="translate(6690 -14984)" fill="#11a87a"/>
    </g>
    <g id="Group_294" data-name="Group 294" transform="translate(1211 781.002) rotate(180)">
      <path id="Union_1-2" data-name="Union 1" d="M-6458.9,15548H-6560v-43h-209v-2h211v43h99.1a5,5,0,0,1,4.9-4,5,5,0,0,1,5,5,5,5,0,0,1-5,5A5,5,0,0,1-6458.9,15548Z" transform="translate(6690 -14984)" fill="#11a87a"/>
    </g>
    <text id="Зв_язатися_з_нами" data-name="Зв&apos;язатися з нами" transform="translate(551 228)" fill="#535659" font-size="40" font-family="Montserrat-Medium, Montserrat" font-weight="500"><tspan x="0" y="0">Зв&apos;язатися з нами</tspan></text>
    <g id="Group_298" data-name="Group 298" transform="translate(-171 19)">
      <rect id="Rectangle_475" data-name="Rectangle 475" width="346" height="42" rx="21" transform="translate(705 482)" fill="#f9f9f9"/>
      <text id="Ім_я" data-name="Ім&apos;я" transform="translate(728 511)" fill="#535659" font-size="22" font-family="Montserrat-Regular, Montserrat"><tspan x="0" y="0">Ім&apos;я</tspan></text>
    </g>
    <g id="Group_299" data-name="Group 299" transform="translate(-20 10)">
      <rect id="Rectangle_474" data-name="Rectangle 474" width="346" height="42" rx="21" transform="translate(917 491)" fill="#f9f9f9"/>
      <text id="Прізвище" transform="translate(940 520)" fill="#535659" font-size="22" font-family="Montserrat-Regular, Montserrat"><tspan x="0" y="0">Прізвище</tspan></text>
    </g>
    <g id="Group_300" data-name="Group 300" transform="translate(0 13)">
      <rect id="Rectangle_473" data-name="Rectangle 473" width="709" height="42" rx="21" transform="translate(534 576)" fill="#f9f9f9"/>
      <text id="e-mail" transform="translate(557 605)" fill="#535659" font-size="22" font-family="Montserrat-Regular, Montserrat"><tspan x="0" y="0">e-mail</tspan></text>
    </g>
  </g>
</svg>
