<svg xmlns="http://www.w3.org/2000/svg" width="470.939" height="76.843" viewBox="0 0 470.939 76.843">
  <g id="Group_312" data-name="Group 312" transform="translate(0 76.843) rotate(-90)">
    <g id="Union_1" data-name="Union 1" transform="translate(0 0)" fill="#11a87a">
      <path d="M 2.720343112945557 470.8135681152344 L 0.1249902099370956 470.8135681152344 L 0.1249902099370956 5.828504085540771 L 0.1371666789054871 5.828504085540771 L 0.1371666789054871 5.816327571868896 L 62.7108154296875 5.816327571868896 L 62.81293106079102 5.816327571868896 L 62.83328247070313 5.716269016265869 C 63.49310684204102 2.47650408744812 66.38311004638672 0.1250334978103638 69.70510864257813 0.1250334978103638 C 73.57192993164063 0.1250334978103638 76.71781158447266 3.260268688201904 76.71781158447266 7.114033699035645 C 76.71781158447266 10.96773910522461 73.57192993164063 14.1029748916626 69.70510864257813 14.1029748916626 C 66.38316345214844 14.1029748916626 63.49316787719727 11.75150394439697 62.83328247070313 8.511739730834961 L 62.81293106079102 8.411680221557617 L 62.7108154296875 8.411680221557617 L 2.845343112945557 8.411680221557617 L 2.720343112945557 8.411680221557617 L 2.720343112945557 8.536680221557617 L 2.720343112945557 470.8135681152344 Z" stroke="none"/>
      <path d="M 2.595343112945557 470.6885681152344 L 2.595343112945557 8.536680221557617 L 2.595343112945557 8.286680221557617 L 2.845343112945557 8.286680221557617 L 62.7108154296875 8.286680221557617 L 62.9150505065918 8.286680221557617 L 62.95575332641602 8.486798286437988 C 63.60387420654297 11.66862201690674 66.44234466552734 13.9779748916626 69.70510864257813 13.9779748916626 C 73.50299072265625 13.9779748916626 76.59281158447266 10.8987979888916 76.59281158447266 7.114033699035645 C 76.59281158447266 3.329210042953491 73.50299072265625 0.2500334978103638 69.70510864257813 0.2500334978103638 C 66.44228363037109 0.2500334978103638 63.60381317138672 2.559386491775513 62.95581436157227 5.741209983825684 L 62.9150505065918 5.941327571868896 L 62.7108154296875 5.941327571868896 L 0.2621666789054871 5.941327571868896 L 0.2621666789054871 5.953504085540771 L 0.2499902099370956 5.953504085540771 L 0.2499902099370956 470.6885681152344 L 2.595343112945557 470.6885681152344 M 2.845343112945557 470.9385681152344 L -9.787167073227465e-06 470.9385681152344 L -9.787167073227465e-06 5.703504085540771 L 0.01216668356209993 5.703504085540771 L 0.01216668356209993 5.691327571868896 L 62.7108154296875 5.691327571868896 C 63.37216567993164 2.444033622741699 66.25246429443359 3.350471160956658e-05 69.70510864257813 3.350471160956658e-05 C 73.64722442626953 3.350471160956658e-05 76.84281158447266 3.184680461883545 76.84281158447266 7.114033699035645 C 76.84281158447266 11.04268074035645 73.64722442626953 14.2279748916626 69.70510864257813 14.2279748916626 C 66.25246429443359 14.2279748916626 63.37216567993164 11.78368091583252 62.7108154296875 8.536680221557617 L 2.845343112945557 8.536680221557617 L 2.845343112945557 470.9385681152344 Z" stroke="none" fill="#1b6e55"/>
    </g>
  </g>
</svg>
