<svg xmlns="http://www.w3.org/2000/svg" width="99" height="99" viewBox="0 0 99 99">
  <g id="Group_357" data-name="Group 357" transform="translate(-33 -6257)">
    <g id="Group_250" data-name="Group 250" transform="translate(-9 682)">
      <g id="Ellipse_2" data-name="Ellipse 2" transform="translate(42 5575)" fill="none" stroke="#0f8d67" stroke-width="1">
        <circle cx="49.5" cy="49.5" r="49.5" stroke="none"/>
        <circle cx="49.5" cy="49.5" r="49" fill="none"/>
      </g>
    </g>
    <g id="Group_256" data-name="Group 256" transform="translate(-90.324 -691.254)">
      <path id="Path_424" data-name="Path 424" d="M9.822-3.834h3.32s0,1.734,0,1.729c7.03.774,12.607,7.094,12.607,14.773l1.78,1.454S25.147,17.9,11.5,17.9-4.687,14.032-4.687,14.032s1.923-1.4,1.936-1.364A14.693,14.693,0,0,1,9.822-2.1C9.83-2.1,9.822-3.834,9.822-3.834Z" transform="translate(161.194 6965.368)" fill="#0f8d67"/>
      <path id="Path_425" data-name="Path 425" d="M8.042,24.2a58.486,58.486,0,0,0,10.823-1.278s1.766-.33,2.481.627.556,1.847.38,3.2a3.922,3.922,0,0,1-1.4,2.491c-.677.785-1.2.082-1.305.648C17.9,35.84,13.41,40.37,8.042,40.37,2.774,40.37-1.65,36.007-2.912,30c-.091-.433-.775.276-1.421-.534A4.307,4.307,0,0,1-5.5,26.754c-.163-1.424-.289-2.289.38-3.2s2.3-.451,2.3-.451A66.129,66.129,0,0,0,8.042,24.2Z" transform="translate(164.677 6961.358)" fill="#0f8d67"/>
      <path id="Path_426" data-name="Path 426" d="M26.813,8.907l-1.675,4.366s.655,17.19.661,17.187A37.535,37.535,0,0,1,9.328,25.267c-1.128-.821-2.547-3.155-3.62-7.049a28.073,28.073,0,0,1-.672-8.526C8.417,5.257,15.774,1.856,24.865.784c-.057.009-1.434,5.892-1.434,5.892Z" transform="translate(142 7001.667)" fill="#0f8d67"/>
      <path id="Path_427" data-name="Path 427" d="M4.961,8.907l1.675,4.366s-.655,17.19-.661,17.187a37.535,37.535,0,0,0,16.472-5.194c1.128-.821,2.547-3.155,3.62-7.049a28.073,28.073,0,0,0,.672-8.526C23.357,5.257,16,1.856,6.908.784c.057.009,1.434,5.892,1.434,5.892Z" transform="translate(171.511 7001.667)" fill="#0f8d67"/>
      <path id="Path_428" data-name="Path 428" d="M-1.724.1.632-2.228,2.8.1,1.662,3.033,4.211,27.546H-3L-.561,3.033Z" transform="translate(172.103 7004.71)" fill="#0f8d67"/>
    </g>
  </g>
</svg>
