<svg xmlns="http://www.w3.org/2000/svg" width="99" height="99" viewBox="0 0 99 99">
  <g id="Group_360" data-name="Group 360" transform="translate(-33 -6122)">
    <g id="Group_248" data-name="Group 248" transform="translate(-9 547)">
      <g id="Ellipse_2" data-name="Ellipse 2" transform="translate(42 5575)" fill="none" stroke="#0f8d67" stroke-width="1">
        <circle cx="49.5" cy="49.5" r="49.5" stroke="none"/>
        <circle cx="49.5" cy="49.5" r="49" fill="none"/>
      </g>
    </g>
    <g id="Subtraction_1" data-name="Subtraction 1" transform="translate(55.477 6145.525)" fill="#0f8d67">
      <path d="M 53.87599945068359 45.24410247802734 L 0.2508998513221741 45.24410247802734 L 0.2508998513221741 6.711301326751709 C 0.2508998513221741 3.149021148681641 3.088459968566895 0.2509011030197144 6.576299667358398 0.2509011030197144 L 47.55059814453125 0.2509011030197144 C 51.0384407043457 0.2509011030197144 53.87599945068359 3.149021148681641 53.87599945068359 6.711301326751709 L 53.87599945068359 45.24410247802734 Z M 7.225199699401855 3.671301126480103 C 5.274509906768799 3.671301126480103 3.687499761581421 5.340260982513428 3.687499761581421 7.391701221466064 L 3.687499761581421 41.32979965209961 L 3.687499761581421 41.57979965209961 L 3.937499761581421 41.57979965209961 L 50.18939971923828 41.57979965209961 L 50.43939971923828 41.57979965209961 L 50.43939971923828 41.32979965209961 L 50.43939971923828 7.391701221466064 C 50.43939971923828 5.340260982513428 48.85239028930664 3.671301126480103 46.90169906616211 3.671301126480103 L 41.12820053100586 3.671301126480103 L 12.21479988098145 3.671301126480103 L 7.225199699401855 3.671301126480103 Z" stroke="none"/>
      <path d="M 53.62599945068359 44.99410247802734 L 53.62599945068359 6.711301326751709 C 53.62599945068359 3.286871194839478 50.90058898925781 0.5009011030197144 47.55059814453125 0.5009011030197144 L 6.576299667358398 0.5009011030197144 C 3.226309776306152 0.5009011030197144 0.5008998513221741 3.286871194839478 0.5008998513221741 6.711301326751709 L 0.5008998513221741 44.99410247802734 L 53.62599945068359 44.99410247802734 M 7.225199699401855 3.421301126480103 L 12.21479988098145 3.421301126480103 L 41.12820053100586 3.421301126480103 L 46.90169906616211 3.421301126480103 C 48.99023818969727 3.421301126480103 50.68939971923828 5.20241117477417 50.68939971923828 7.391701221466064 L 50.68939971923828 41.32979965209961 L 50.68939971923828 41.82979965209961 L 50.18939971923828 41.82979965209961 L 3.937499761581421 41.82979965209961 L 3.437499761581421 41.82979965209961 L 3.437499761581421 41.32979965209961 L 3.437499761581421 7.391701221466064 C 3.437499761581421 5.20241117477417 5.136659622192383 3.421301126480103 7.225199699401855 3.421301126480103 M 54.12599945068359 45.49510192871094 L 54.12599945068359 45.49410247802734 L 0.0008998596458695829 45.49410247802734 L 0.0008998596458695829 6.711301326751709 C 0.0008998596458695829 3.011171102523804 2.950609922409058 0.000901098654139787 6.576299667358398 0.000901098654139787 L 47.55059814453125 0.000901098654139787 C 51.17628860473633 0.000901098654139787 54.12599945068359 3.011171102523804 54.12599945068359 6.711301326751709 L 54.12599945068359 45.49410247802734 L 54.12599945068359 45.49510192871094 Z M 7.225199699401855 3.921301126480103 C 5.412359714508057 3.921301126480103 3.937499761581421 5.478111267089844 3.937499761581421 7.391701221466064 L 3.937499761581421 41.32979965209961 L 50.18939971923828 41.32979965209961 L 50.18939971923828 7.391701221466064 C 50.18939971923828 5.478111267089844 48.71453857421875 3.921301126480103 46.90169906616211 3.921301126480103 L 41.12820053100586 3.921301126480103 L 12.21479988098145 3.921301126480103 L 7.225199699401855 3.921301126480103 Z" stroke="none" fill="#0f8d67"/>
    </g>
    <g id="Rectangle_421" data-name="Rectangle 421" transform="translate(47.606 6190.257)" fill="#0f8d67" stroke="#0f8d67" stroke-linecap="round" stroke-linejoin="round" stroke-width="0.5">
      <path d="M0,0H69.87a0,0,0,0,1,0,0V.849a4,4,0,0,1-4,4H4a4,4,0,0,1-4-4V0A0,0,0,0,1,0,0Z" stroke="none"/>
      <path d="M.5.25H69.37a.25.25,0,0,1,.25.25V.849A3.75,3.75,0,0,1,65.87,4.6H4A3.75,3.75,0,0,1,.25.849V.5A.25.25,0,0,1,.5.25Z" fill="none"/>
    </g>
    <g id="Group_255" data-name="Group 255" transform="translate(63.406 6169.463)">
      <g id="Rectangle_422" data-name="Rectangle 422" transform="translate(-0.406 -0.463)" fill="#fff" stroke="#0f8d67" stroke-width="1">
        <rect width="20" height="13" rx="2" stroke="none"/>
        <rect x="0.5" y="0.5" width="19" height="12" rx="1.5" fill="none"/>
      </g>
      <path id="Path_422" data-name="Path 422" d="M-.472,0h18.61" transform="translate(0.648 4.535)" fill="none" stroke="#0f8d67" stroke-width="3"/>
    </g>
    <path id="Path_421" data-name="Path 421" d="M1.7,2.414,3.413,4.257,6.1.409" transform="translate(90.638 6173.253)" fill="none" stroke="#0f8d67" stroke-linecap="round" stroke-linejoin="round" stroke-width="1"/>
    <line id="Line_9" data-name="Line 9" x2="14.251" transform="translate(87.67 6159.747)" fill="none" stroke="#0f8d67" stroke-linecap="round" stroke-width="0.75"/>
    <line id="Line_10" data-name="Line 10" x2="14.251" transform="translate(87.67 6162.338)" fill="none" stroke="#0f8d67" stroke-linecap="round" stroke-width="0.75"/>
    <line id="Line_11" data-name="Line 11" x2="14.251" transform="translate(87.67 6157.155)" fill="none" stroke="#0f8d67" stroke-linecap="round" stroke-width="0.75"/>
    <g id="Rectangle_423" data-name="Rectangle 423" transform="translate(90 6171)" fill="none" stroke="#0f8d67" stroke-linecap="round" stroke-linejoin="round" stroke-width="0.75">
      <rect width="9" height="9" stroke="none"/>
      <rect x="0.375" y="0.375" width="8.25" height="8.25" fill="none"/>
    </g>
    <path id="Path_423" data-name="Path 423" d="M.53,0H17.557V9H.53Z" transform="translate(64 6155)" fill="#0f8d67" stroke="#0f8d67" stroke-linecap="round" stroke-linejoin="round" stroke-width="1"/>
  </g>
</svg>
