<?xml version="1.0" encoding="utf-8"?>
<!-- Generator: Adobe Illustrator 22.1.0, SVG Export Plug-In . SVG Version: 6.00 Build 0)  -->
<svg version="1.1" id="Слой_1" xmlns="http://www.w3.org/2000/svg" xmlns:xlink="http://www.w3.org/1999/xlink" x="0px" y="0px"
	 viewBox="0 0 1404 316" style="enable-background:new 0 0 1404 316;" xml:space="preserve">
<style type="text/css">
	.st0{fill:#FFFFFF;}
	.st1{fill:#0BA87A;}
</style>
<g>
	<polygon class="st0" points="300.9,13.6 300.9,100 338.5,56.2 394.8,56.2 348.6,102.3 394.8,181.6 343.2,181.6 318.1,132.5 
		300.9,149.6 300.9,181.6 254.1,181.6 254.1,38 300.9,13.6 	"/>
	<path class="st0" d="M100.2,100.9c-2.3,1.7-5.7,2.5-10.4,2.5H66.6V84.6h24.9c8.1,0,12.1,3.3,12.1,9.8
		C103.6,97,102.5,99.2,100.2,100.9 M90.5,153.3H66.6v-22.7H91c5.1,0,9,0.8,11.7,2.5c2.7,1.7,4,4.5,4,8.4
		C106.6,149.4,101.3,153.3,90.5,153.3 M133.5,64.3c-9.1-5.3-22.9-8-41.4-8H22.8v125.3H92c39.4,0,59.2-11.9,59.2-35.8
		c0-8-2.4-14.6-7.3-19.7c-4.9-5.1-11.8-8.2-21-9.2v-0.9c7.5-1.3,13.5-4.3,17.8-9.1c4.3-4.8,6.5-10.8,6.5-18.1
		C147.2,77.7,142.7,69.6,133.5,64.3"/>
	<polygon class="st0" points="412.2,56.3 412.2,181.6 456,181.6 456,133.6 490.7,133.6 490.7,181.6 534.6,181.6 534.6,178.1 
		534.6,56.3 490.7,56.3 490.7,101.4 456,101.4 456,56.3 412.2,56.3 	"/>
	<path class="st0" d="M596.7,142.5c0-9.8,7.1-14.9,21.3-15.4l9.9-0.4v9.6c0,5.2-1.9,9.5-5.6,12.7c-3.7,3.3-8.2,4.9-13.4,4.9
		C600.8,153.8,596.7,150,596.7,142.5 M670.8,181.6v-80.8c0-14.1-4.4-25-13.2-32.9c-8.8-7.8-21.2-11.7-37.2-11.7
		c-22.2,0-40.6,3.7-55.1,11.1l12.5,28.1c14-6.1,25.6-9.1,34.7-9.1c10.1,0,15.2,5.1,15.2,15.2v1.7l-20.8,0.7
		c-17.6,0.8-31,4.4-40.2,10.8c-9.3,6.4-13.9,16.2-13.9,29.3c0,12.6,3.4,22.4,10.1,29.4c6.8,7,16,10.4,27.8,10.4
		c9.6,0,17.3-1.3,23.4-3.9c6-2.6,11.9-7.5,17.8-14.6h0.9l8.3,16.3H670.8L670.8,181.6z"/>
	<polygon class="st1" points="220.6,56.3 176.8,56.3 176.8,181.6 220.6,181.6 220.6,56.3 	"/>
	<path class="st1" d="M198.3,49c14.9,0,22.3-6,22.3-18.1c0-6-1.8-10.6-5.3-13.7c-3.6-3.1-9.2-4.6-17-4.6c-7.8,0-13.4,1.5-16.9,4.5
		c-3.5,3-5.2,7.6-5.2,13.8C176.2,42.9,183.6,49,198.3,49"/>
	<path class="st1" d="M1121.8,132.3c0,0,3-34.6-12.1-53.3c-14.1-17.6-32.8-22.5-57.6-22.5c-27.8,0-61.7,17.8-65.8,49.9
		c-4.5,34.9,8.9,69.7,46.2,76.3c13.9,2,22.1,1.4,22.1,1.4v-27.1c0,0-21,1.6-23.3-24.6H1121.8L1121.8,132.3z M1076.3,109.5h-44.9
		c0,0-0.2-25.7,22.4-25.7C1076.5,83.8,1076.3,109.5,1076.3,109.5L1076.3,109.5z"/>
	<path class="st0" d="M807.2,142.7h-42.6c0,0,2.9,41.5,62,41.5c59,0,60.8-32.7,60.8-42.8c0-10.1-8.6-39.6-51.1-39.6
		c-31.8,0-29.1-12.8-29.1-12.8s1.4-7.9,14.4-7.9c13.1,0,18.9,7.9,18.9,12.2h69.1v52.3c0,0-2.5,38.5,30.7,38.5
		c33.1,0,39.9-3.1,39.9-3.1l-2.9-31.8c0,0-23,11.5-23-7.9c0-19.4,0-47.7,0-47.7h25V56.5h-24.6V12.2l-45.3,24.1v20h-85.1
		c0,0-57.5-2.2-57.5,37.2c0,36.5,46.8,39,55.9,40.1c12.9,1.2,22.8,4.6,22.8,13.5c0,11.3-17.8,10.8-17.8,10.8S807.2,158,807.2,142.7
		L807.2,142.7z"/>
	<path class="st1" d="M1392,119.3c0-37.3-26.8-63.1-66.8-63.1c-40,0-67.7,23.4-67.7,64.6c0,39.9,30.1,63.3,66.4,63.3
		C1360,184.1,1392,166,1392,119.3L1392,119.3z M1346.8,120.2c0,21.8-11,32.6-22,32.6c-11,0-22.7-10.8-22.7-32.6
		c0-18.7,9.7-32.1,22.5-32.1C1337.3,88,1346.8,101,1346.8,120.2L1346.8,120.2z"/>
	<polygon class="st1" points="1222.6,102.2 1267.4,56.5 1212.4,56.5 1175.7,98.5 1175.7,12.5 1129.3,37.8 1129.3,181.6 
		1175.3,181.6 1175.3,149.3 1192.6,131.9 1216.9,181.6 1267.4,181.6 1222.6,102.2 	"/>
	<path class="st0" d="M1005.7,235h-45.1v8.4h17.6v44.9h9.8v-44.9h17.7V235L1005.7,235z M1059.2,280v-14.7h25.7v-8.1h-25.7v-13.9h29
		V235h-38.9v53.3h40V280H1059.2L1059.2,280z M1135.4,235v53.3h9.7v-44.9h27.6v44.9h9.7V235H1135.4L1135.4,235z M1238.3,235
		l-0.8,22.1c-0.5,15-2.5,22.9-9,22.9c-0.8,0-1.5-0.1-2.3-0.3l-0.7,8.6c2.1,0.5,3.7,0.8,5.4,0.8c11.5,0,14.6-11.3,15.3-32.4l0.5-13.3
		h21v44.9h9.7V235H1238.3L1238.3,235z M1352.3,289.1c16.5,0,28.7-11.6,28.7-27.4s-12.2-27.4-28.7-27.4c-16.5,0-28.7,11.6-28.7,27.4
		S1335.7,289.1,1352.3,289.1L1352.3,289.1z M1352.3,280.4c-10.7,0-18.7-7.8-18.7-18.7s8-18.7,18.7-18.7c10.7,0,18.7,7.8,18.7,18.7
		S1363,280.4,1352.3,280.4L1352.3,280.4z"/>
	<path class="st1" d="M854.9,283l-6.7-6.4c2.2-3.4,3.8-7.5,4.8-12.2l-7.7-2.5c-0.7,3.4-1.7,6.5-3,9l-11.5-11
		c7.7-4.3,10.9-8.3,10.9-13.8c0-7.2-5.6-11.7-14.2-11.7c-9.4,0-15.5,5.1-15.5,12.6c0,3.9,1.6,7.4,5.9,11.7
		c-8.7,4.9-12.3,9.5-12.3,16.1c0,8.4,8.1,14.2,19.4,14.2c7,0,13.1-2.3,17.9-6.4l6.7,6.5L854.9,283L854.9,283z M827.5,241.2
		c4,0,6.2,2.1,6.2,5.1c0,2.9-2,5.1-8.1,8.5c-3.8-3.8-4.8-5.6-4.8-7.9C820.7,243.6,823.2,241.2,827.5,241.2L827.5,241.2z
		 M825.7,281.3c-6.5,0-10.8-3-10.8-7.5c0-3.8,2.1-6.6,8.3-10.1l14.1,13.5C834,280,830.1,281.3,825.7,281.3L825.7,281.3z"/>
	<path class="st0" d="M22.8,288.3h9.7V235h-9.7V288.3L22.8,288.3z M127.2,280V235H88.1l-0.6,16.9c-0.5,15.6-2.3,27.7-9.5,28h-2.3
		l-0.1,19.7h9.2v-11.3h40.9v11.3h9.1V280H127.2L127.2,280z M96.2,252.9l0.4-9.4h20.9V280h-27C94.5,275.7,95.7,265,96.2,252.9
		L96.2,252.9z M189.1,280v-14.7h25.7v-8.1h-25.7v-13.9h29V235h-38.9v53.3h40V280H189.1L189.1,280z M305.9,288.3h10.4L292.2,235h-9.7
		l-24,53.3h10.2l5.3-12.3h26.6L305.9,288.3L305.9,288.3z M277.3,268.2l10-23.3l10.1,23.3H277.3L277.3,268.2z M366.1,235l-0.8,22.1
		c-0.5,15-2.5,22.9-9,22.9c-0.8,0-1.5-0.1-2.3-0.3l-0.7,8.6c2.1,0.5,3.7,0.8,5.4,0.8c11.5,0,14.6-11.3,15.3-32.4l0.5-13.3h21v44.9
		h9.7V235H366.1L366.1,235z M480,253.1h-14.8v-18h-9.7v53.3h22.9c13.5,0,21.5-6.2,21.5-18.2C499.8,258.8,492.7,253.1,480,253.1
		L480,253.1z M477.9,280.7h-12.7v-20.1h12.7c7.7,0,12,3,12,9.7C489.9,277.1,485.5,280.7,477.9,280.7L477.9,280.7z M582.4,235v22
		h-27.6v-22H545v53.3h9.9v-22.8h27.6v22.8h9.9V235H582.4L582.4,235z M667,289.1c16.5,0,28.7-11.6,28.7-27.4s-12.2-27.4-28.7-27.4
		c-16.5,0-28.7,11.6-28.7,27.4S650.4,289.1,667,289.1L667,289.1z M667,280.4c-10.7,0-18.7-7.8-18.7-18.7s8-18.7,18.7-18.7
		c10.7,0,18.7,7.8,18.7,18.7S677.7,280.4,667,280.4L667,280.4z"/>
</g>
</svg>
