<svg xmlns="http://www.w3.org/2000/svg" width="58.999" height="10" viewBox="0 0 58.999 10">
  <g id="Group_244" data-name="Group 244" transform="translate(181 568.001) rotate(180)">
    <g id="Union_1" data-name="Union 1" transform="translate(6690 -14984)" fill="#11a87a">
      <path d="M -6514 15551.8759765625 C -6516.31005859375 15551.8759765625 -6518.31884765625 15550.2353515625 -6518.77685546875 15547.9755859375 L -6518.79736328125 15547.875 L -6518.8994140625 15547.875 L -6567.87353515625 15547.875 L -6567.87353515625 15546.123046875 L -6518.89892578125 15546.123046875 L -6518.796875 15546.123046875 L -6518.7763671875 15546.0224609375 C -6518.3173828125 15543.7646484375 -6516.30859375 15542.1259765625 -6514 15542.1259765625 C -6511.31201171875 15542.1259765625 -6509.125 15544.3125 -6509.125 15547.0009765625 C -6509.125 15549.689453125 -6511.31201171875 15551.8759765625 -6514 15551.8759765625 Z" stroke="none"/>
      <path d="M -6514 15551.7509765625 C -6511.380859375 15551.7509765625 -6509.25 15549.6201171875 -6509.25 15547.0009765625 C -6509.25 15544.3818359375 -6511.380859375 15542.2509765625 -6514 15542.2509765625 C -6516.24951171875 15542.2509765625 -6518.20654296875 15543.84765625 -6518.65380859375 15546.0478515625 L -6518.69482421875 15546.248046875 L -6518.89892578125 15546.248046875 L -6567.74853515625 15546.248046875 L -6567.74853515625 15547.75 L -6518.8994140625 15547.75 L -6518.69482421875 15547.75 L -6518.654296875 15547.9501953125 C -6518.2080078125 15550.15234375 -6516.2509765625 15551.7509765625 -6514 15551.7509765625 M -6514 15552.0009765625 C -6516.42041015625 15552.0009765625 -6518.43701171875 15550.2822265625 -6518.8994140625 15548 L -6567.99853515625 15548 L -6567.99853515625 15545.998046875 L -6518.89892578125 15545.998046875 C -6518.43505859375 15543.7158203125 -6516.41943359375 15542.0009765625 -6514 15542.0009765625 C -6511.240234375 15542.0009765625 -6509 15544.23828125 -6509 15547.0009765625 C -6509 15549.7607421875 -6511.240234375 15552.0009765625 -6514 15552.0009765625 Z" stroke="none" fill="#1b6e55"/>
    </g>
  </g>
</svg>
