<svg xmlns="http://www.w3.org/2000/svg" width="151.001" height="10" viewBox="0 0 151.001 10">
  <g id="Group_243" data-name="Group 243" transform="translate(0 -558.001)">
    <g id="Union_1" data-name="Union 1" transform="translate(6690 -14984)" fill="#11a87a">
      <path d="M -6543.99853515625 15551.8759765625 C -6546.30810546875 15551.8759765625 -6548.3173828125 15550.2353515625 -6548.77587890625 15547.9755859375 L -6548.79638671875 15547.875 L -6548.8984375 15547.875 L -6689.87451171875 15547.875 L -6689.87451171875 15546.123046875 L -6548.89794921875 15546.123046875 L -6548.7958984375 15546.123046875 L -6548.775390625 15546.0234375 C -6548.31640625 15543.7646484375 -6546.3076171875 15542.1259765625 -6543.99853515625 15542.1259765625 C -6541.310546875 15542.1259765625 -6539.12353515625 15544.3125 -6539.12353515625 15547.0009765625 C -6539.12353515625 15549.689453125 -6541.310546875 15551.8759765625 -6543.99853515625 15551.8759765625 Z" stroke="none"/>
      <path d="M -6543.99853515625 15551.7509765625 C -6541.37939453125 15551.7509765625 -6539.24853515625 15549.6201171875 -6539.24853515625 15547.0009765625 C -6539.24853515625 15544.3818359375 -6541.37939453125 15542.2509765625 -6543.99853515625 15542.2509765625 C -6546.24853515625 15542.2509765625 -6548.20556640625 15543.84765625 -6548.65283203125 15546.0478515625 L -6548.69384765625 15546.248046875 L -6548.89794921875 15546.248046875 L -6689.74951171875 15546.248046875 L -6689.74951171875 15547.75 L -6548.8984375 15547.75 L -6548.69384765625 15547.75 L -6548.6533203125 15547.9501953125 C -6548.20654296875 15550.15234375 -6546.2490234375 15551.7509765625 -6543.99853515625 15551.7509765625 M -6543.99853515625 15552.0009765625 C -6546.41943359375 15552.0009765625 -6548.435546875 15550.2822265625 -6548.8984375 15548 L -6689.99951171875 15548 L -6689.99951171875 15545.998046875 L -6548.89794921875 15545.998046875 C -6548.43408203125 15543.7158203125 -6546.41845703125 15542.0009765625 -6543.99853515625 15542.0009765625 C -6541.2392578125 15542.0009765625 -6538.99853515625 15544.23828125 -6538.99853515625 15547.0009765625 C -6538.99853515625 15549.7607421875 -6541.2392578125 15552.0009765625 -6543.99853515625 15552.0009765625 Z" stroke="none" fill="#1b6e55"/>
    </g>
  </g>
</svg>
